975-94392779.VRO
Created: 30.01.2011
CRC32: 9DD916C7
MD5: CDE1318716FF58A6215EA5079D47C6FF
SHA-1: 485998E42D1268225A2DC8EF0B5A637F10E06C72

VHS Recorder Model: SAMSUNG VK-30R/BWX
VHS Recorder S/N: 62MF100720
Recording Device Model: PANASONIC DVD VIDEO RECORDER DMR-E55
Recording Device S/N: VV4EA002574
Recording Device Quality Settings: SP
Medium Used: DVD-RAM 4.7 GB Single Sided Non-Cartridge Disc
Tape Info: C62N7BB E-90

General
Complete name                    : Y:\Core\Video\Restored from VHS Tapes\975-94392779.VRO
Format                           : MPEG-PS
File size                        : 2.70 GiB
Duration                         : 1h 22mn
Overall bit rate                 : 4 674 Kbps

Video
ID                               : 224 (0xE0)
Format                           : MPEG Video
Format version                   : Version 2
Format profile                   : Main@Main
Format settings, BVOP            : Yes
Format settings, Matrix          : Default
Format settings, GOP             : M=3, N=12
Duration                         : 1h 22mn
Bit rate mode                    : Variable
Bit rate                         : 4 325 Kbps
Nominal bit rate                 : 9 579 Kbps
Width                            : 704 pixels
Height                           : 576 pixels
Display aspect ratio             : 4:3
Frame rate                       : 25.000 fps
Standard                         : PAL
Color space                      : YUV
Chroma subsampling               : 4:2:0
Bit depth                        : 8 bits
Scan type                        : Interlaced
Scan order                       : Top Field First
Bits/(Pixel*Frame)               : 0.427
Stream size                      : 2.50 GiB (93%)

Audio
ID                               : 128 (0x80)
Format                           : AC-3
Format/Info                      : Audio Coding 3
Mode extension                   : CM (complete main)
Duration                         : 1h 22mn
Bit rate mode                    : Constant
Bit rate                         : 256 Kbps
Channel(s)                       : 2 channels
Channel positions                : Front: L R
Sampling rate                    : 48.0 KHz
Bit depth                        : 16 bits
Stream size                      : 152 MiB (5%)
